<svg width="74" height="23" fill="none" xmlns="http://www.w3.org/2000/svg"><path d="M.005 1.549A1.286 1.286 0 011.257.262H8.39c5.057 0 8.385 2.703 8.385 7.13v.06c0 4.846-4.033 7.358-8.802 7.358H2.538v6.801a1.28 1.28 0 01-.754 1.28 1.269 1.269 0 01-1.717-.758 1.28 1.28 0 01-.062-.522V1.549zm8.067 10.968c3.706 0 6.14-1.994 6.14-4.986v-.06c0-3.21-2.394-4.875-5.961-4.875H2.588v9.881l5.484.04zM21.593 1.389a1.282 1.282 0 01.755-1.28 1.268 1.268 0 011.717.758c.056.168.077.346.062.522v20.222a1.28 1.28 0 01-.754 1.28 1.27 1.27 0 01-1.717-.758 1.282 1.282 0 01-.063-.522V1.389zm9.081.03A1.278 1.278 0 0131.926.173h.348a1.535 1.535 0 011.281.737l13.6 17.4V1.36A1.239 1.239 0 0148.389.122c.327 0 .64.13.871.362.231.232.36.546.36.874V21.65a1.14 1.14 0 01-.703 1.092 1.13 1.13 0 01-.449.085h-.129a1.695 1.695 0 01-1.311-.778L33.117 4.24v17.41a1.258 1.258 0 01-1.191 1.247 1.238 1.238 0 01-1.212-1.247V1.42h-.04zm25.264-.03a1.282 1.282 0 01.755-1.28 1.268 1.268 0 011.717.758c.056.168.077.346.062.522v12.295L71.228.55c.262-.271.618-.432.994-.448a1.27 1.27 0 011.222 1.256 1.29 1.29 0 01-.418.898l-7.947 7.897 8.573 10.53c.224.26.348.593.348.937a1.312 1.312 0 01-.838 1.191 1.228 1.228 0 01-1.497-.493L63.3 11.859l-4.828 4.846v4.886a1.27 1.27 0 01-.78 1.17 1.259 1.259 0 01-1.648-.685 1.27 1.27 0 01-.096-.485V1.389h-.01z" fill="#fff"/></svg>