<svg width="298" height="345" fill="none" xmlns="http://www.w3.org/2000/svg"><path d="M264.586 102.035l5.35-5.359c7.72-7.718 9.13-18.935 3.13-24.924-6-5.988-17.22-4.599-24.93 3.12l-5.39 5.388a148.207 148.207 0 00-74.73-31.972V38.7h7.66c10.91 0 19.84-8.708 19.84-19.345 0-10.637-8.93-19.355-19.84-19.355h-53.32c-10.91 0-19.84 8.708-19.84 19.355 0 10.648 8.93 19.345 19.84 19.345h7.66v9.588a149.014 149.014 0 00-86.459 42.5 148.931 148.931 0 00-22.943 180.848 148.988 148.988 0 0073.11 62.734 149.035 149.035 0 0096.22 4.896 149.01 149.01 0 0079.102-54.989 148.935 148.935 0 00-4.46-182.242zm-115.57 204.149c-21.79 0-43.09-6.46-61.208-18.563a110.151 110.151 0 01-40.576-49.432 110.118 110.118 0 0123.886-120.034 110.18 110.18 0 0156.411-30.141 110.198 110.198 0 0163.655 6.272 110.162 110.162 0 0149.44 40.571 110.117 110.117 0 01-13.709 139.07 110.183 110.183 0 01-77.899 32.257z" fill="#DEDEDE"/><circle cx="149" cy="196" r="117" stroke="#D22856" stroke-width="18"/><path d="M145.133 239H85.25v-12.598l21.504-21.738c6.367-6.523 10.527-11.035 12.48-13.535 1.954-2.539 3.36-4.883 4.219-7.031a17.836 17.836 0 001.289-6.68c0-3.438-.957-5.996-2.871-7.676-1.875-1.68-4.394-2.519-7.559-2.519-3.32 0-6.542.761-9.667 2.285-3.125 1.523-6.387 3.691-9.786 6.504l-9.843-11.66c4.218-3.594 7.715-6.133 10.488-7.618 2.773-1.484 5.801-2.617 9.082-3.398 3.281-.82 6.953-1.231 11.016-1.231 5.351 0 10.078.977 14.179 2.93 4.102 1.953 7.285 4.688 9.551 8.203 2.266 3.516 3.398 7.539 3.398 12.071 0 3.945-.703 7.656-2.109 11.132-1.367 3.438-3.516 6.973-6.445 10.606-2.891 3.633-8.008 8.808-15.352 15.527l-11.015 10.371v.821h37.324V239zm70.488-17.754h-10.312V239h-17.696v-17.754h-36.562v-12.598l37.558-55.312h16.7v53.848h10.312v14.062zm-28.008-14.062v-14.532c0-2.422.098-5.937.293-10.547.196-4.609.352-7.285.469-8.027h-.469a65.256 65.256 0 01-5.215 9.375l-15.703 23.731h20.625z" fill="#D22856"/></svg>