<svg width="18" height="14" fill="none" xmlns="http://www.w3.org/2000/svg"><path d="M11.564.169A3.675 3.675 0 0113.672.14c.688.196 1.291.59 1.723 1.122.71-.21 1.41-.447 2.131-.656a2.03 2.03 0 01-.253.917c-.157.284-.38.533-.653.729.253.026.508-.002.747-.081.24-.08.456-.208.633-.376-.099.414-.3.801-.588 1.131-.287.33-.653.594-1.07.772-.247 6.27-3.367 10.467-10.689 10.296H5.15c-.443 0-4.418-.428-5.149-1.75 1.752.245 3.539-.147 4.984-1.095-1.03-.286-2.852-.447-3.161-2.74.388.133.81.163 1.215.085C1.76 7.705.34 7.039.422 4.993a2.17 2.17 0 001.421.438C1.102 5.203-.247 2.31.896.825c1.926 1.723 3.964 3.35 7.59 3.512C8.711 2.205 9.69.777 11.563.169z" fill="#D22856"/></svg>